<?xml version="1.0" encoding="UTF-8"?><svg xmlns="http://www.w3.org/2000/svg" viewBox="0 0 82.8 124.72"><defs><style>.d{fill:#1d1b1a;}.e{fill:#9f1c24;}.f{fill:#f2f1ea;}</style></defs><g id="a"/><g id="b"><g id="c"><g><g><path class="d" d="M59.73,57.53c-10.11,2.42-13.14-4.97-12.47-12.5,.76-8.48,.74-16.43-7.77-20.21C20.3,16.3-8.69,44.08,2.49,79.73c8.39,26.75,31.63,33.76,50.25,30.61,22.78-3.85,31.56-25.87,29.86-38.61-1.48-11.04-12.36-16.71-22.86-14.2Zm10.79,18.4c-.44,4.85-3.4,8.9-7.66,8.52-4.26-.38-6.9-4.17-6.76-9.11,.14-4.87,3.76-9.42,7.99-8.84,4.74,.65,6.87,4.58,6.43,9.43ZM33.4,42.98c-1.47,.98-3.37,1.35-5.16,.94-4.67-1.08-5.75-5.44-3.68-9.52,1.45-2.85,5.11-4.39,8.42-3.25,5.17,1.79,5.54,8.42,.42,11.83Zm-14.1,15.86c-1.02,1.19-2.53,1.89-4.1,1.84-4.1-.14-5.87-4.02-4.97-8.22,.63-2.94,3.36-5.06,6.34-4.61,4.65,.71,6.3,6.85,2.73,10.99Zm2.83,19.31c-.33,1.53-1.32,2.87-2.73,3.57-3.67,1.83-7.08-.74-8.29-4.86-.85-2.88,.55-6.05,3.38-7.07,4.43-1.59,8.8,3.02,7.63,8.36Zm12.8,14.45c.41,1.6,.14,3.36-.82,4.74-2.51,3.6-6.85,2.98-9.91-.24-2.14-2.25-2.35-5.92-.23-8.34,3.32-3.78,9.51-1.74,10.96,3.84Z"/><path class="f" d="M70.52,75.93c-.44,4.85-3.4,8.9-7.66,8.52-4.26-.38-6.9-4.17-6.76-9.11,.14-4.87,3.76-9.42,7.99-8.84,4.74,.65,6.87,4.58,6.43,9.43Z"/><path class="f" d="M34.94,92.6c.41,1.6,.14,3.36-.82,4.74-2.51,3.6-6.85,2.98-9.91-.24-2.14-2.25-2.35-5.92-.23-8.34,3.32-3.78,9.51-1.74,10.96,3.84Z"/><path class="f" d="M33.4,42.98c-1.47,.98-3.37,1.35-5.16,.94-4.67-1.08-5.75-5.44-3.68-9.52,1.45-2.85,5.11-4.39,8.42-3.25,5.17,1.79,5.54,8.42,.42,11.83Z"/><path class="f" d="M19.3,58.85c-1.02,1.19-2.53,1.89-4.1,1.84-4.1-.14-5.87-4.02-4.97-8.22,.63-2.94,3.36-5.06,6.34-4.61,4.65,.71,6.3,6.85,2.73,10.99Z"/><path class="f" d="M22.13,78.15c-.33,1.53-1.32,2.87-2.73,3.57-3.67,1.83-7.08-.74-8.29-4.86-.85-2.88,.55-6.05,3.38-7.07,4.43-1.59,8.8,3.02,7.63,8.36Z"/></g><g><path class="e" d="M77.64,.31h0c1.55,.73,2.26,2.56,1.6,4.14l-22.71,54.9c-.67,1.61-2.54,2.33-4.11,1.59l-5.62-2.65c-1.57-.74-2.2-2.65-1.38-4.19L73.42,1.7c.81-1.51,2.66-2.13,4.22-1.39Z"/><path class="e" d="M39.49,88.9s1.81-5.52,8.5-12.06c2.48-2.42,3.11-5.46,2.05-7.94h0c-1.31-3.05-4.69-4.65-7.88-3.72h0c-2.6,.75-4.05,3.08-4.73,5.7-2.49,9.57,2.07,18.02,2.07,18.02Z"/><rect class="e" x="42.58" y="61.24" width="11.54" height="2.83" rx="1.42" ry="1.42" transform="translate(65.29 139.96) rotate(-154.7)"/></g><path class="e" d="M67.25,108.84c-.45,1.2-2.01,3.7-4.82,3.37-3.29-.39-3.82-3.26-3.12-6.79,.49-2.47,2.52-4.14,4.92-3.71,3.45,.62,4.38,3.49,3.02,7.13Z"/><path class="e" d="M55.22,121.94c-.57,2.03-2.19,2.98-4.21,2.74-2.36-.28-3.01-1.87-2.5-4.4,.35-1.77,2.21-3.96,3.95-3.76,1.91,.22,3.51,2.73,2.76,5.42Z"/></g></g></g></svg>